# Blender v3.2.1 OBJ File: 'CLbody.blend'
# www.blender.org
mtllib CLbody.mtl
o 円柱.001_円柱
v 0.000000 -2.250000 -30.000000
v 0.000000 2.250000 -30.000000
v 1.148050 -2.250000 -27.716385
v 1.148050 2.250000 -27.716385
v 2.121320 -2.250000 -21.213203
v 2.121320 2.250000 -21.213203
v 2.771638 -2.250000 -11.480503
v 2.771638 2.250000 -11.480503
v 3.000000 -2.250000 0.000001
v 3.000000 2.250000 0.000001
v 2.771639 -2.250000 11.480502
v 2.771639 2.250000 11.480502
v 2.121320 -2.250000 21.213203
v 2.121320 2.250000 21.213203
v 1.148050 -2.250000 27.716385
v 1.148050 2.250000 27.716385
v -0.000000 -2.250000 30.000000
v -0.000000 2.250000 30.000000
v -1.148050 -2.250000 27.716385
v -1.148050 2.250000 27.716385
v -2.121320 -2.250000 21.213205
v -2.121320 2.250000 21.213205
v -2.771638 -2.250000 11.480507
v -2.771638 2.250000 11.480507
v -3.000000 -2.250000 -0.000000
v -3.000000 2.250000 -0.000000
v -2.771638 -2.250000 -11.480508
v -2.771638 2.250000 -11.480508
v -2.121321 -2.250000 -21.213202
v -2.121321 2.250000 -21.213202
v -1.148050 -2.250000 -27.716387
v -1.148050 2.250000 -27.716387
vt 0.500000 1.000000
vt 0.468750 0.500000
vt 0.500000 0.500000
vt 0.468750 1.000000
vt 0.437500 0.500000
vt 0.437500 1.000000
vt 0.406250 0.500000
vt 0.406250 1.000000
vt 0.375000 0.500000
vt 0.375000 1.000000
vt 0.343750 0.500000
vt 0.343750 1.000000
vt 0.312500 0.500000
vt 0.312500 1.000000
vt 0.281250 0.500000
vt 0.281250 1.000000
vt 0.250000 0.500000
vt 0.250000 1.000000
vt 0.218750 0.500000
vt 0.218750 1.000000
vt 0.187500 0.500000
vt 0.187500 1.000000
vt 0.156250 0.500000
vt 0.156250 1.000000
vt 0.125000 0.500000
vt 0.125000 1.000000
vt 0.093750 0.500000
vt 0.093750 1.000000
vt 0.062500 0.500000
vt 0.419706 0.419706
vt 0.080294 0.419706
vt 0.080294 0.080294
vt 0.062500 1.000000
vt 0.031250 0.500000
vt 0.031250 1.000000
vt 0.000000 0.500000
vt 0.971731 0.341844
vt 0.841844 0.028269
vt 0.528269 0.158156
vt 0.341844 0.471731
vt 0.250000 0.490000
vt 0.158156 0.471731
vt 0.028269 0.341844
vt 0.010000 0.250000
vt 0.028269 0.158156
vt 0.158156 0.028269
vt 0.250000 0.010000
vt 0.341844 0.028269
vt 0.419706 0.080294
vt 0.471731 0.158156
vt 0.490000 0.250000
vt 0.471731 0.341844
vt 0.000000 1.000000
vt 0.658156 0.471731
vt 0.750000 0.490000
vt 0.841844 0.471731
vt 0.919706 0.419706
vt 0.990000 0.250000
vt 0.971731 0.158156
vt 0.919706 0.080294
vt 0.750000 0.010000
vt 0.658156 0.028269
vt 0.580294 0.080294
vt 0.510000 0.250000
vt 0.528269 0.341844
vt 0.580294 0.419706
vn 0.8934 0.0000 -0.4492
vn 0.9890 0.0000 -0.1480
vn 0.9978 0.0000 -0.0667
vn 0.9998 0.0000 -0.0199
vn 0.9998 0.0000 0.0199
vn 0.9978 0.0000 0.0667
vn 0.9890 0.0000 0.1480
vn 0.8934 0.0000 0.4492
vn -0.8934 0.0000 0.4492
vn -0.9890 0.0000 0.1480
vn -0.9978 0.0000 0.0667
vn -0.9998 0.0000 0.0199
vn -0.9998 0.0000 -0.0199
vn -0.9978 0.0000 -0.0667
vn 0.0000 1.0000 -0.0000
vn -0.9890 0.0000 -0.1480
vn -0.8934 0.0000 -0.4492
vn 0.0000 -1.0000 0.0000
usemtl None
s off
f 2/1/1 3/2/1 1/3/1
f 4/4/2 5/5/2 3/2/2
f 6/6/3 7/7/3 5/5/3
f 8/8/4 9/9/4 7/7/4
f 10/10/5 11/11/5 9/9/5
f 12/12/6 13/13/6 11/11/6
f 14/14/7 15/15/7 13/13/7
f 16/16/8 17/17/8 15/15/8
f 18/18/9 19/19/9 17/17/9
f 20/20/10 21/21/10 19/19/10
f 22/22/11 23/23/11 21/21/11
f 24/24/12 25/25/12 23/23/12
f 26/26/13 27/27/13 25/25/13
f 28/28/14 29/29/14 27/27/14
f 6/30/15 30/31/15 22/32/15
f 30/33/16 31/34/16 29/29/16
f 32/35/17 1/36/17 31/34/17
f 7/37/18 15/38/18 23/39/18
f 2/1/1 4/4/1 3/2/1
f 4/4/2 6/6/2 5/5/2
f 6/6/3 8/8/3 7/7/3
f 8/8/4 10/10/4 9/9/4
f 10/10/5 12/12/5 11/11/5
f 12/12/6 14/14/6 13/13/6
f 14/14/7 16/16/7 15/15/7
f 16/16/8 18/18/8 17/17/8
f 18/18/9 20/20/9 19/19/9
f 20/20/10 22/22/10 21/21/10
f 22/22/11 24/24/11 23/23/11
f 24/24/12 26/26/12 25/25/12
f 26/26/13 28/28/13 27/27/13
f 28/28/14 30/33/14 29/29/14
f 6/30/15 4/40/15 2/41/15
f 2/41/15 32/42/15 30/31/15
f 30/31/15 28/43/15 22/32/15
f 28/43/15 26/44/15 22/32/15
f 26/44/15 24/45/15 22/32/15
f 22/32/15 20/46/15 18/47/15
f 18/47/15 16/48/15 14/49/15
f 14/49/15 12/50/15 10/51/15
f 10/51/15 8/52/15 14/49/15
f 8/52/15 6/30/15 14/49/15
f 6/30/15 2/41/15 30/31/15
f 22/32/15 18/47/15 6/30/15
f 18/47/15 14/49/15 6/30/15
f 30/33/16 32/35/16 31/34/16
f 32/35/17 2/53/17 1/36/17
f 31/54/18 1/55/18 7/37/18
f 1/55/18 3/56/18 7/37/18
f 3/56/18 5/57/18 7/37/18
f 7/37/18 9/58/18 11/59/18
f 11/59/18 13/60/18 15/38/18
f 15/38/18 17/61/18 19/62/18
f 19/62/18 21/63/18 23/39/18
f 23/39/18 25/64/18 27/65/18
f 27/65/18 29/66/18 23/39/18
f 29/66/18 31/54/18 23/39/18
f 7/37/18 11/59/18 15/38/18
f 15/38/18 19/62/18 23/39/18
f 31/54/18 7/37/18 23/39/18
o 立方体
v -1.500000 2.250000 12.000000
v -1.500000 5.250000 12.000000
v -1.500000 2.250000 6.000000
v -1.500000 5.250000 6.000000
v 1.500000 2.250000 12.000000
v 1.500000 5.250000 12.000000
v 1.500000 2.250000 6.000000
v 1.500000 5.250000 6.000000
vt 0.812500 0.500000
vt 0.687500 0.625000
vt 0.687500 0.500000
vt 0.812500 0.625000
vt 0.687500 0.750000
vt 0.812500 0.750000
vt 0.687500 0.875000
vt 0.812500 0.875000
vt 0.687500 1.000000
vt 0.562500 0.875000
vt 0.562500 0.750000
vt 0.937500 0.750000
vt 0.812500 1.000000
vt 0.937500 0.875000
vn -1.0000 0.0000 0.0000
vn 0.0000 0.0000 -1.0000
vn 1.0000 0.0000 0.0000
vn 0.0000 0.0000 1.0000
vn 0.0000 -1.0000 0.0000
vn 0.0000 1.0000 0.0000
usemtl None
s off
f 34/67/19 35/68/19 33/69/19
f 36/70/20 39/71/20 35/68/20
f 40/72/21 37/73/21 39/71/21
f 38/74/22 33/75/22 37/73/22
f 39/71/23 33/76/23 35/77/23
f 36/78/24 38/74/24 40/72/24
f 34/67/19 36/70/19 35/68/19
f 36/70/20 40/72/20 39/71/20
f 40/72/21 38/74/21 37/73/21
f 38/74/22 34/79/22 33/75/22
f 39/71/23 37/73/23 33/76/23
f 36/78/24 34/80/24 38/74/24
