# Blender v3.2.1 OBJ File: 'RangeFinderBody.blend'
# www.blender.org
mtllib RangeFinderBody.mtl
o 立方体.001
v -0.300000 -0.400000 0.400000
v -0.300000 0.400000 0.400000
v -0.450000 -0.400000 -0.400000
v -0.450000 0.400000 -0.400000
v 0.300000 -0.400000 0.400000
v 0.300000 0.400000 0.400000
v 0.450000 -0.400000 -0.400000
v 0.450000 0.400000 -0.400000
vt 0.812500 0.250000
vt 0.687500 0.375000
vt 0.687500 0.250000
vt 0.812500 0.375000
vt 0.687500 0.500000
vt 0.812500 0.500000
vt 0.687500 0.625000
vt 0.812500 0.625000
vt 0.687500 0.750000
vt 0.562500 0.625000
vt 0.562500 0.500000
vt 0.937500 0.500000
vt 0.812500 0.750000
vt 0.937500 0.625000
vn -0.9829 0.0000 0.1843
vn 0.0000 0.0000 -1.0000
vn 0.9829 0.0000 0.1843
vn 0.0000 0.0000 1.0000
vn 0.0000 -1.0000 0.0000
vn 0.0000 1.0000 0.0000
usemtl None
s off
f 2/1/1 3/2/1 1/3/1
f 4/4/2 7/5/2 3/2/2
f 8/6/3 5/7/3 7/5/3
f 6/8/4 1/9/4 5/7/4
f 7/5/5 1/10/5 3/11/5
f 4/12/6 6/8/6 8/6/6
f 2/1/1 4/4/1 3/2/1
f 4/4/2 8/6/2 7/5/2
f 8/6/3 6/8/3 5/7/3
f 6/8/4 2/13/4 1/9/4
f 7/5/5 5/7/5 1/10/5
f 4/12/6 2/14/6 6/8/6
o 円柱_円柱.001
v -1.200000 0.000000 -0.200000
v 1.200000 -0.000000 -0.200000
v -1.200000 -0.039018 -0.196157
v 1.200000 -0.039018 -0.196157
v -1.200000 -0.076537 -0.184776
v 1.200000 -0.076537 -0.184776
v -1.200000 -0.111114 -0.166294
v 1.200000 -0.111114 -0.166294
v -1.200000 -0.141421 -0.141421
v 1.200000 -0.141421 -0.141421
v -1.200000 -0.166294 -0.111114
v 1.200000 -0.166294 -0.111114
v -1.200000 -0.184776 -0.076537
v 1.200000 -0.184776 -0.076537
v -1.200000 -0.196157 -0.039018
v 1.200000 -0.196157 -0.039018
v -1.200000 -0.200000 0.000000
v 1.200000 -0.200000 0.000000
v -1.200000 -0.196157 0.039018
v 1.200000 -0.196157 0.039018
v -1.200000 -0.184776 0.076537
v 1.200000 -0.184776 0.076537
v -1.200000 -0.166294 0.111114
v 1.200000 -0.166294 0.111114
v -1.200000 -0.141421 0.141421
v 1.200000 -0.141421 0.141421
v -1.200000 -0.111114 0.166294
v 1.200000 -0.111114 0.166294
v -1.200000 -0.076537 0.184776
v 1.200000 -0.076537 0.184776
v -1.200000 -0.039018 0.196157
v 1.200000 -0.039018 0.196157
v -1.200000 0.000000 0.200000
v 1.200000 -0.000000 0.200000
v -1.200000 0.039018 0.196157
v 1.200000 0.039018 0.196157
v -1.200000 0.076537 0.184776
v 1.200000 0.076537 0.184776
v -1.200000 0.111114 0.166294
v 1.200000 0.111114 0.166294
v -1.200000 0.141421 0.141421
v 1.200000 0.141421 0.141421
v -1.200000 0.166294 0.111114
v 1.200000 0.166294 0.111114
v -1.200000 0.184776 0.076537
v 1.200000 0.184776 0.076537
v -1.200000 0.196157 0.039018
v 1.200000 0.196157 0.039018
v -1.200000 0.200000 -0.000000
v 1.200000 0.200000 -0.000000
v -1.200000 0.196157 -0.039018
v 1.200000 0.196157 -0.039018
v -1.200000 0.184776 -0.076537
v 1.200000 0.184776 -0.076537
v -1.200000 0.166294 -0.111114
v 1.200000 0.166294 -0.111114
v -1.200000 0.141421 -0.141421
v 1.200000 0.141421 -0.141421
v -1.200000 0.111114 -0.166294
v 1.200000 0.111114 -0.166294
v -1.200000 0.076537 -0.184776
v 1.200000 0.076537 -0.184776
v -1.200000 0.039018 -0.196157
v 1.200000 0.039018 -0.196157
vt 0.500000 0.752500
vt 0.484375 0.502500
vt 0.500000 0.502500
vt 0.484375 0.752500
vt 0.468750 0.502500
vt 0.468750 0.752500
vt 0.453125 0.502500
vt 0.453125 0.752500
vt 0.437500 0.502500
vt 0.437500 0.752500
vt 0.421875 0.502500
vt 0.421875 0.752500
vt 0.406250 0.502500
vt 0.406250 0.752500
vt 0.390625 0.502500
vt 0.390625 0.752500
vt 0.375000 0.502500
vt 0.375000 0.752500
vt 0.359375 0.502500
vt 0.359375 0.752500
vt 0.343750 0.502500
vt 0.343750 0.752500
vt 0.328125 0.502500
vt 0.328125 0.752500
vt 0.312500 0.502500
vt 0.312500 0.752500
vt 0.296875 0.502500
vt 0.296875 0.752500
vt 0.281250 0.502500
vt 0.281250 0.752500
vt 0.265625 0.502500
vt 0.265625 0.752500
vt 0.250000 0.502500
vt 0.250000 0.752500
vt 0.234375 0.502500
vt 0.234375 0.752500
vt 0.218750 0.502500
vt 0.218750 0.752500
vt 0.203125 0.502500
vt 0.203125 0.752500
vt 0.187500 0.502500
vt 0.187500 0.752500
vt 0.171875 0.502500
vt 0.171875 0.752500
vt 0.156250 0.502500
vt 0.156250 0.752500
vt 0.140625 0.502500
vt 0.140625 0.752500
vt 0.125000 0.502500
vt 0.125000 0.752500
vt 0.109375 0.502500
vt 0.109375 0.752500
vt 0.093750 0.502500
vt 0.093750 0.752500
vt 0.078125 0.502500
vt 0.078125 0.752500
vt 0.062500 0.502500
vt 0.062500 0.752500
vt 0.046875 0.502500
vt 0.046875 0.752500
vt 0.031250 0.502500
vt 0.014134 0.423422
vt 0.079078 0.266634
vt 0.235866 0.331578
vt 0.031250 0.752500
vt 0.015625 0.502500
vt 0.015625 0.752500
vt 0.000000 0.502500
vt 0.492694 0.400911
vt 0.398411 0.259806
vt 0.257306 0.354089
vt 0.170922 0.488366
vt 0.148411 0.495194
vt 0.079078 0.488366
vt 0.125000 0.497500
vt 0.101589 0.495194
vt 0.058332 0.477276
vt 0.040147 0.462353
vt 0.025224 0.444168
vt 0.007306 0.400911
vt 0.005000 0.377500
vt 0.007306 0.354089
vt 0.014134 0.331578
vt 0.025224 0.310832
vt 0.040147 0.292647
vt 0.058332 0.277724
vt 0.101589 0.259806
vt 0.125000 0.257500
vt 0.148411 0.259806
vt 0.170922 0.266634
vt 0.191668 0.277724
vt 0.209853 0.292647
vt 0.224776 0.310832
vt 0.242694 0.354089
vt 0.245000 0.377500
vt 0.242694 0.400911
vt 0.235866 0.423422
vt 0.224776 0.444168
vt 0.209853 0.462353
vt 0.191668 0.477276
vt 0.000000 0.752500
vt 0.351589 0.495194
vt 0.375000 0.497500
vt 0.398411 0.495194
vt 0.420922 0.488366
vt 0.441668 0.477276
vt 0.459853 0.462353
vt 0.474776 0.444168
vt 0.485866 0.423422
vt 0.495000 0.377500
vt 0.492694 0.354089
vt 0.485866 0.331578
vt 0.474776 0.310832
vt 0.459853 0.292647
vt 0.441668 0.277724
vt 0.420922 0.266634
vt 0.375000 0.257500
vt 0.351589 0.259806
vt 0.329078 0.266634
vt 0.308332 0.277724
vt 0.290147 0.292647
vt 0.275224 0.310832
vt 0.264134 0.331578
vt 0.255000 0.377500
vt 0.257306 0.400911
vt 0.264134 0.423422
vt 0.275224 0.444168
vt 0.290147 0.462353
vt 0.308332 0.477276
vt 0.329078 0.488366
vn -0.0000 -0.0980 -0.9952
vn -0.0000 -0.2903 -0.9569
vn -0.0000 -0.4714 -0.8819
vn -0.0000 -0.6344 -0.7730
vn -0.0000 -0.7730 -0.6344
vn -0.0000 -0.8819 -0.4714
vn -0.0000 -0.9569 -0.2903
vn -0.0000 -0.9952 -0.0980
vn -0.0000 -0.9952 0.0980
vn -0.0000 -0.9569 0.2903
vn -0.0000 -0.8819 0.4714
vn -0.0000 -0.7730 0.6344
vn -0.0000 -0.6344 0.7730
vn -0.0000 -0.4714 0.8819
vn -0.0000 -0.2903 0.9569
vn 0.0000 -0.0980 0.9952
vn 0.0000 0.0980 0.9952
vn 0.0000 0.2903 0.9569
vn 0.0000 0.4714 0.8819
vn 0.0000 0.6344 0.7730
vn 0.0000 0.7730 0.6344
vn 0.0000 0.8819 0.4714
vn 0.0000 0.9569 0.2903
vn 0.0000 0.9952 0.0980
vn 0.0000 0.9952 -0.0980
vn 0.0000 0.9569 -0.2903
vn 0.0000 0.8819 -0.4714
vn 0.0000 0.7730 -0.6344
vn 0.0000 0.6344 -0.7730
vn 0.0000 0.4714 -0.8819
vn 1.0000 0.0000 0.0000
vn 0.0000 0.2903 -0.9569
vn 0.0000 0.0980 -0.9952
vn -1.0000 0.0000 0.0000
usemtl None
s off
f 10/15/7 11/16/7 9/17/7
f 12/18/8 13/19/8 11/16/8
f 14/20/9 15/21/9 13/19/9
f 16/22/10 17/23/10 15/21/10
f 18/24/11 19/25/11 17/23/11
f 20/26/12 21/27/12 19/25/12
f 22/28/13 23/29/13 21/27/13
f 24/30/14 25/31/14 23/29/14
f 26/32/15 27/33/15 25/31/15
f 28/34/16 29/35/16 27/33/16
f 30/36/17 31/37/17 29/35/17
f 32/38/18 33/39/18 31/37/18
f 34/40/19 35/41/19 33/39/19
f 36/42/20 37/43/20 35/41/20
f 38/44/21 39/45/21 37/43/21
f 40/46/22 41/47/22 39/45/22
f 42/48/23 43/49/23 41/47/23
f 44/50/24 45/51/24 43/49/24
f 46/52/25 47/53/25 45/51/25
f 48/54/26 49/55/26 47/53/26
f 50/56/27 51/57/27 49/55/27
f 52/58/28 53/59/28 51/57/28
f 54/60/29 55/61/29 53/59/29
f 56/62/30 57/63/30 55/61/30
f 58/64/31 59/65/31 57/63/31
f 60/66/32 61/67/32 59/65/32
f 62/68/33 63/69/33 61/67/33
f 64/70/34 65/71/34 63/69/34
f 66/72/35 67/73/35 65/71/35
f 68/74/36 69/75/36 67/73/36
f 62/76/37 46/77/37 30/78/37
f 70/79/38 71/80/38 69/75/38
f 72/81/39 9/82/39 71/80/39
f 23/83/40 39/84/40 55/85/40
f 10/15/7 12/18/7 11/16/7
f 12/18/8 14/20/8 13/19/8
f 14/20/9 16/22/9 15/21/9
f 16/22/10 18/24/10 17/23/10
f 18/24/11 20/26/11 19/25/11
f 20/26/12 22/28/12 21/27/12
f 22/28/13 24/30/13 23/29/13
f 24/30/14 26/32/14 25/31/14
f 26/32/15 28/34/15 27/33/15
f 28/34/16 30/36/16 29/35/16
f 30/36/17 32/38/17 31/37/17
f 32/38/18 34/40/18 33/39/18
f 34/40/19 36/42/19 35/41/19
f 36/42/20 38/44/20 37/43/20
f 38/44/21 40/46/21 39/45/21
f 40/46/22 42/48/22 41/47/22
f 42/48/23 44/50/23 43/49/23
f 44/50/24 46/52/24 45/51/24
f 46/52/25 48/54/25 47/53/25
f 48/54/26 50/56/26 49/55/26
f 50/56/27 52/58/27 51/57/27
f 52/58/28 54/60/28 53/59/28
f 54/60/29 56/62/29 55/61/29
f 56/62/30 58/64/30 57/63/30
f 58/64/31 60/66/31 59/65/31
f 60/66/32 62/68/32 61/67/32
f 62/68/33 64/70/33 63/69/33
f 64/70/34 66/72/34 65/71/34
f 66/72/35 68/74/35 67/73/35
f 68/74/36 70/79/36 69/75/36
f 14/86/37 12/87/37 70/88/37
f 12/87/37 10/89/37 70/88/37
f 10/89/37 72/90/37 70/88/37
f 70/88/37 68/91/37 66/92/37
f 66/92/37 64/93/37 70/88/37
f 64/93/37 62/76/37 70/88/37
f 62/76/37 60/94/37 58/95/37
f 58/95/37 56/96/37 54/97/37
f 54/97/37 52/98/37 50/99/37
f 50/99/37 48/100/37 46/77/37
f 46/77/37 44/101/37 42/102/37
f 42/102/37 40/103/37 38/104/37
f 38/104/37 36/105/37 34/106/37
f 34/106/37 32/107/37 30/78/37
f 30/78/37 28/108/37 26/109/37
f 26/109/37 24/110/37 22/111/37
f 22/111/37 20/112/37 18/113/37
f 18/113/37 16/114/37 14/86/37
f 62/76/37 58/95/37 46/77/37
f 58/95/37 54/97/37 46/77/37
f 54/97/37 50/99/37 46/77/37
f 46/77/37 42/102/37 38/104/37
f 38/104/37 34/106/37 46/77/37
f 34/106/37 30/78/37 46/77/37
f 30/78/37 26/109/37 14/86/37
f 26/109/37 22/111/37 14/86/37
f 22/111/37 18/113/37 14/86/37
f 14/86/37 70/88/37 62/76/37
f 14/86/37 62/76/37 30/78/37
f 70/79/38 72/81/38 71/80/38
f 72/81/39 10/115/39 9/82/39
f 71/116/40 9/117/40 11/118/40
f 11/118/40 13/119/40 15/120/40
f 15/120/40 17/121/40 19/122/40
f 19/122/40 21/123/40 23/83/40
f 23/83/40 25/124/40 27/125/40
f 27/125/40 29/126/40 31/127/40
f 31/127/40 33/128/40 35/129/40
f 35/129/40 37/130/40 39/84/40
f 39/84/40 41/131/40 43/132/40
f 43/132/40 45/133/40 47/134/40
f 47/134/40 49/135/40 51/136/40
f 51/136/40 53/137/40 55/85/40
f 55/85/40 57/138/40 59/139/40
f 59/139/40 61/140/40 55/85/40
f 61/140/40 63/141/40 55/85/40
f 63/141/40 65/142/40 67/143/40
f 67/143/40 69/144/40 63/141/40
f 69/144/40 71/116/40 63/141/40
f 71/116/40 11/118/40 23/83/40
f 11/118/40 15/120/40 23/83/40
f 15/120/40 19/122/40 23/83/40
f 23/83/40 27/125/40 31/127/40
f 31/127/40 35/129/40 23/83/40
f 35/129/40 39/84/40 23/83/40
f 39/84/40 43/132/40 55/85/40
f 43/132/40 47/134/40 55/85/40
f 47/134/40 51/136/40 55/85/40
f 55/85/40 63/141/40 71/116/40
f 71/116/40 23/83/40 55/85/40
